{"title":"The Wolverine 2013 CAM XviD 480P AC3 MURDER","uid":8781087,"size":2803572154,"categoryP":"video","categoryS":"movies","magnet":"?xt=urn:btih:14e79f3b3a6989d275ca0987f7a0c9c69245ed2f&amp;dn=The+Wolverine+2013+CAM+XviD+480P+AC3+MURDER&amp;tr=udp%3A%2F%2Ftracker.openbittorrent.com%3A80&amp;tr=udp%3A%2F%2Fopen.demonii.com%3A1337&amp;tr=udp%3A%2F%2Ftracker.coppersurfer.tk%3A6969&amp;tr=udp%3A%2F%2Fexodus.desync.com%3A6969","seeders":1,"leechers":0,"uploader":"TeX","files":11,"time":1375712899,"description":"[img]http://i.imgur.com/iAbPunm.jpg[/img]\n\n\nComplete name : The Wolverine 2013 CAM XviD 480P AC3 MURDER.mkv\nFormat : Matroska\nFormat version : Version 2\nFile size : 2.60 GiB\nDuration : 1h 55mn\nOverall bit rate : 3 220 Kbps\nEncoded date : UTC 2013-08-05 09:14:39\n\nVideo\nID : 1\nFormat : MPEG-4 Visual\nFormat profile : Simple@L3\nFormat settings, BVOP : No\nFormat settings, QPel : No\nFormat settings, GMC : No warppoints\nFormat settings, Matrix : Default (H.263)\nCodec ID : V_MS/VFW/FOURCC / XVID\nCodec ID/Hint : XviD\nDuration : 1h 55mn\nBit rate : 3 027 Kbps\nWidth : 1 280 pixels\nHeight : 488 pixels\nDisplay aspect ratio : 2.35:1\nFrame rate mode : Constant\nFrame rate : 29.970 fps\nColor space : YUV\nChroma subsampling : 4:2:0\nBit depth : 8 bits\nScan type : Progressive\nCompression mode : Lossy\nBits/(Pixel*Frame) : 0.162\nStream size : 2.45 GiB (94%)\nWriting library : XviD 64\n\n\nAudio\nID : 2\nFormat : AC-3\nFormat/Info : Audio Coding 3\nMode extension : CM (complete main)\nFormat settings, Endianness : Big\nCodec ID : A_AC3\nDuration : 1h 55mn\nBit rate mode : Constant\nBit rate : 128 Kbps\nChannel(s) : 2 channels\nChannel positions : Front: L R\nSampling rate : 48.0 KHz\nBit depth : 16 bits\nCompression mode : Lossy\nStream size : 106 MiB (4%)\nDefault : Yes\nForced : No\n\n[img]http://lookpic.com/O/i2/1594/Ub1IjqXZ.png[/img]\n[img]http://lookpic.com/O/i2/517/Nf2r1Wb8.png[/img]\n[img]http://lookpic.com/O/i2/680/YbCYXdj0.png[/img][image=keYUaCTsKZ][image=bgWL5NxqR1]","torrent":{"xt":"urn:btih:14e79f3b3a6989d275ca0987f7a0c9c69245ed2f","amp;dn":"The+Wolverine+2013+CAM+XviD+480P+AC3+MURDER","amp;tr":["udp%3A%2F%2Ftracker.openbittorrent.com%3A80","udp%3A%2F%2Fopen.demonii.com%3A1337","udp%3A%2F%2Ftracker.coppersurfer.tk%3A6969","udp%3A%2F%2Fexodus.desync.com%3A6969"],"infoHash":"14e79f3b3a6989d275ca0987f7a0c9c69245ed2f","infoHashBuffer":{"type":"Buffer","data":[20,231,159,59,58,105,137,210,117,202,9,135,247,160,201,198,146,69,237,47]},"announce":[],"urlList":[]}}